# xmcd CD database file
# Copyright (C) 1993-1998 Ti Kan
#
# Track frame offsets:
#	183
#	12670
#	36693
#	55940
#	79573
#	93178
#	102563
#	125925
#	145033
#	164305
#
# Disc length: 2518 seconds
#
# Revision: 1
# Processed by: cddbd v1.4b41PL1 Copyright (c) Steve Scherf et al.
# Submitted via: CDValet v3.01 - Copyright (c) 1997 Greg Leichner
#
DISCID=8a09d40a
DTITLE=Graham Bond Organisation - Live at Klooks Kleek
DYEAR=1900
DGENRE=
TTITLE0=Wade in the water
TTITLE1=Big boss man
TTITLE2=Early in the morning
TTITLE3=Person to person blues
TTITLE4=Spanish blues
TTITLE5=Intoduction by Dick Jordan
TTITLE6=The first time I met the blues
TTITLE7=Stormy Monday
TTITLE8=Train time
TTITLE9=What'd I say
EXTD=
EXTT0=
EXTT1=
EXTT2=
EXTT3=
EXTT4=
EXTT5=
EXTT6=
EXTT7=
EXTT8=
EXTT9=
PLAYORDER=
